<?xml version="1.0" encoding="utf-8"?>
<!-- Generator: Adobe Illustrator 21.0.2, SVG Export Plug-In . SVG Version: 6.00 Build 0)  -->
<svg version="1.1" id="Layer_1" xmlns="http://www.w3.org/2000/svg" xmlns:xlink="http://www.w3.org/1999/xlink" x="0px" y="0px"
	 viewBox="0 0 1200 1200" style="enable-background:new 0 0 1200 1200;" xml:space="preserve">
<g>
	<g>
		<path d="M149.3,19.5c1.7,0,3,0,4.4,0c263.4,0,526.7,0,790.1,0c53.5,0,99.2,39,107.5,91.8c0.8,4.8,1,9.7,1,14.6
			c0,352.6,0,705.2,0,1057.9c0,1.2,0,2.5,0,4.3c-1.6,0-3.1,0-4.5,0c-262.7,0-525.5,0-788.2,0c-52.5,0-97.4-36.6-107.9-88.1
			c-1.5-7.2-2.3-14.6-2.3-21.9c-0.1-351.5-0.1-703-0.1-1054.5C149.3,22.3,149.3,21.1,149.3,19.5z M682.5,173.6c0,90.7,0,181,0,271.5
			c71.9,0,143.5,0,215.3,0c0-90.6,0-181,0-271.5C826,173.6,754.4,173.6,682.5,173.6z M900.1,760.2c-198.4,0-396.4,0-594.5,0
			c0,25.9,0,51.6,0,77.3c198.3,0,396.3,0,594.5,0C900.1,811.7,900.1,786.1,900.1,760.2z M900.1,954.2c-198.4,0-396.4,0-594.5,0
			c0,25.9,0,51.5,0,77.3c198.3,0,396.3,0,594.5,0C900.1,1005.7,900.1,980.2,900.1,954.2z M305.6,641.1c198.3,0,396.4,0,594.5,0
			c0-25.8,0-51.4,0-77.1c-198.3,0-396.3,0-594.5,0C305.6,589.9,305.6,615.4,305.6,641.1z M563.7,367.8c-86.1,0-172,0-258.1,0
			c0,25.9,0,51.6,0,77.4c86.1,0,172,0,258.1,0C563.7,419.3,563.7,393.8,563.7,367.8z M305.6,248.7c86.2,0,172.2,0,258.1,0
			c0-25.9,0-51.4,0-77.1c-86.2,0-172.1,0-258.1,0C305.6,197.4,305.6,223,305.6,248.7z"/>
	</g>
</g>
</svg>
