<?xml version="1.0" encoding="utf-8"?>
<!-- Generator: Adobe Illustrator 21.0.2, SVG Export Plug-In . SVG Version: 6.00 Build 0)  -->
<svg version="1.1" id="Layer_1" xmlns="http://www.w3.org/2000/svg" xmlns:xlink="http://www.w3.org/1999/xlink" x="0px" y="0px"
	 viewBox="0 0 1200 1200" style="enable-background:new 0 0 1200 1200;" xml:space="preserve">
<g>
	<g>
		<path d="M247.5,957.6c-1.7,0.1-3.3,0.4-5,0.4c-61.2,0-122.5,0-183.7,0c-13.2,0-23.7-4.8-29.8-16.9c-1.8-3.5-2.4-7.7-3.3-11.6
			c-0.3-1.4-0.1-3-0.1-4.5c0-219.2,0-438.5-0.1-657.7c0-11.2,3.9-20.1,12.7-26.8c4.5-3.5,9.7-5.6,15.5-5.8c2.2-0.1,4.5-0.1,6.7-0.1
			c357.5,0,715,0,1072.4-0.1c11.9,0,22,3,29,12.9c3.6,5,6.1,10.4,5.9,16.9c-0.2,7.6,0,15.2,0,22.9c0,212.7,0,425.5,0.1,638.2
			c0,10.8-3.8,19.3-11.9,26.1c-6.4,5.3-14.1,6.5-22.2,6.5c-46.9,0-93.7,0-140.6,0c-13.9,0-27.7,0-41.6,0c-1.9,0-3.8-0.2-5.8-0.4
			c-0.1-0.4-0.2-0.8-0.2-1.1c1.2-0.5,2.4-1.3,3.7-1.5c2.5-0.4,3.1-1.6,2.5-3.9c-2-7.9-3.9-15.7-5.9-23.6
			c-2.6-10.2-5.2-20.3-7.8-30.5c-2.6-10.2-5.2-20.3-7.7-30.5c-2.6-10.4-5.3-20.8-7.9-31.2c-2.5-9.8-5-19.6-7.5-29.4
			c-2-8-4-16-6.1-23.9c-0.4-1.7-0.7-3.5-1.6-5c-0.7-1.1-2.1-2.1-3.4-2.5c-1.4-0.4-3-0.1-4.5-0.1c-201.7,0-403.5,0-605.2,0
			c-8.1,0-7.9,0.1-9.7,8.2c-2.3,10.2-5.1,20.3-7.6,30.5c-2.7,10.6-5.4,21.3-8.1,31.9c-3.3,12.9-6.7,25.9-10,38.8
			c-2.6,10-5.1,20.1-7.7,30.1c-2.7,10.4-5.3,20.8-7.9,31.2c-0.2,0.7-0.5,1.4-0.6,2.2c-1.5,5.9-1.4,5.9,4,8.1c0.5,0.2,0.9,0.7,1.4,1
			C247.6,956.9,247.5,957.2,247.5,957.6z M384.2,687.3c2.5,0.2,4,0.4,5.4,0.4c99.7,0,199.5,0,299.2,0c1,0,2,0,3,0
			c3.1-0.2,3.5-1,1.9-3.6c-6.5-10.3-12.8-20.7-17.8-32c-7.9-17.8-12.8-36.3-14.2-55.5c-2.4-31.8,3.1-62.3,17-91.3
			c9.8-20.3,22.8-38,39.2-53.4c19.3-18.1,41.5-31.4,66.9-39.2c10.2-3.1,20.8-5.2,31.3-7c23.1-3.8,46.1-1.8,68.7,4
			c14.4,3.7,28.1,9.3,41.2,16.5c16.2,8.9,30.5,20.3,43.2,33.7c12.3,12.9,22.4,27.4,30.2,43.5c6.7,13.7,11.8,28,14.6,43.1
			c0.8,4.2,1.7,8.3,3,12.4c4,12.5,8.2,24.8,12.3,37.3c4.1,12.3,8.1,24.6,12.1,36.9c4.2,12.8,8.4,25.6,12.7,38.3
			c1.4,4.3,3.1,8.4,4.7,12.9c1.3-0.7,1.7-0.9,2.2-1.1c10.7-6.8,15.1-16.9,15.1-29.2c0-99.9,0-199.7,0-299.6c0-2.2-0.1-4.5-0.4-6.7
			c-1.5-9.5-6.2-16.9-14.4-22.1c-6.5-4.1-13.6-4.4-20.9-4.4c-297.5,0-595,0-892.5,0c-3.1,0-6.3-0.1-9.3,0.5
			c-3.6,0.7-7.4,1.7-10.5,3.5c-11.3,6.4-15.7,16.5-15.7,29.3c0.1,99.9,0.1,199.7,0.1,299.6c0,3.1,0.1,6.3,0.8,9.3
			c2.3,10.3,8.2,17.7,18.1,21.7c3.6,1.4,4.4,0.9,5.6-2.8c1.1-3.6,2.2-7.1,3.4-10.7c4.1-12.3,8.2-24.6,12.3-36.9
			c4.1-12.3,8-24.7,12.1-37c4.1-12.4,7.9-24.9,12.6-37.2c3.5-9.3,7.4-18.5,12.3-27.1c8.3-14.7,19.4-27.2,33-37.3
			c13.6-10,28.4-17.1,44.9-21.3c22.5-5.8,44.8-5.2,66.9,1.3c15.9,4.7,30.4,12.5,43.2,23.2c23,19.3,37.8,43.5,43.5,73.1
			c4.8,25.2,2.2,49.8-7.9,73.4c-6.2,14.5-14.9,27.4-26.2,38.4C386.2,684.9,385.6,685.7,384.2,687.3z M840,658.5
			c42.6-0.3,76.1-35,75.8-76.5c-0.3-42.2-34.6-76.1-76.5-75.9c-42.6,0.3-76.1,34.6-76,76.3C763.5,625.7,798.8,658.8,840,658.5z
			 M297.7,649.8c29.6,0.4,53.7-24.3,53.8-53.3c0.1-29.5-24-53.6-53.4-53.9c-29.4-0.3-53.9,24-54,53.7
			C244,625.2,267.5,649.9,297.7,649.8z M1010.6,637c-0.8,0.9-1.3,1.2-1.5,1.7c-1,2.5-2,5.1-3,7.6c-5.3,13.5-12,26.3-20.6,38
			c-1.7,2.3-0.9,3.5,1.8,3.5c12.2,0,24.5,0,36.7,0c2.7,0,3.1-1.1,2.3-3.6c-3.6-10.5-7-21-10.5-31.5
			C1014.2,647.7,1012.5,642.6,1010.6,637z M210.4,687.4c-0.1-1-0.1-1.4-0.2-1.5c-0.6-0.7-1.3-1.5-2-2.2
			c-10.1-10-17.9-21.6-24.1-34.4c-0.5-1-1.4-1.8-2.1-2.7c-0.8,1-1.9,1.9-2.3,3.1c-3.7,11-7.3,22-11,32.9c-1.5,4.4-0.9,5.2,3.9,5.2
			c11.4,0,22.7,0,34.1,0C207.9,687.8,209,687.6,210.4,687.4z"/>
		<path d="M596.6,958c-106.1,0-212.2,0-318.3,0c-0.9,0-1.8,0-2.6,0c-4-0.1-4.2-0.5-3.2-4.4c3.3-12.9,6.5-25.9,9.8-38.8
			c3.3-13.1,6.8-26.1,10.1-39.1c3.4-13.2,6.6-26.4,9.9-39.5c2.3-9.3,4.6-18.6,7.2-27.9c0.3-1.2,2.1-2.1,3.4-2.8c0.8-0.4,2-0.1,3-0.1
			c187.2,0,374.4,0,561.6,0c5.9,0,5.7,0.1,7.1,5.8c2.4,10.1,5.1,20.1,7.7,30.1c2.7,10.4,5.3,20.8,7.9,31.2c2.6,10,5.1,20.1,7.7,30.1
			c2.6,10.4,5.3,20.8,7.9,31.2c1.7,6.8,3.2,13.6,5.2,20.3c1,3.3-0.1,4.1-3,4.1c-1,0-2,0-3,0C808.8,958,702.7,958,596.6,958z
			 M795.3,881.6c0-27.9-21.8-50.8-50.6-50.9c-28.4-0.1-50.8,21.5-51,50.8c-0.2,28.6,22.5,50.7,50.9,50.9
			C772.5,932.6,795.4,909.5,795.3,881.6z M440.8,882.2c0.4-18.3-13.9-33.6-32.4-33.7c-18.2-0.1-33,13.3-33.5,32.7
			c-0.4,17.8,14.2,33.1,32.3,33.5C425.5,915.1,440.4,900.7,440.8,882.2z"/>
		<path d="M261.4,958c2.5,0,4.9-0.1,7.4,0.1c0.7,0.1,1.3,1.1,2,1.7c-0.8,0.6-1.7,1.8-2.3,1.7c-2.5-0.6-4.8-1.6-7.2-2.5
			C261.3,958.5,261.4,958.2,261.4,958z"/>
		<path d="M932,958.8c-2.2,0.9-4.3,1.9-6.5,2.5c-0.8,0.2-1.9-0.8-2.9-1.3c0.8-0.7,1.5-1.8,2.4-1.9c2.3-0.3,4.6-0.1,6.9-0.1
			C931.9,958.2,931.9,958.5,932,958.8z"/>
		<path d="M592.9,346.4c107.9,0,215.7,0,323.6,0c5.7,0,5.7,0,5.7,5.5c0,8.7-0.1,17.5,0.1,26.2c0.1,3-1,4.2-3.9,3.9
			c-1.1-0.1-2.2,0-3.4,0c-215.1,0-430.2,0-645.3,0c-6.1,0-6.1,0-6.1-6.2c0-8.2,0.1-16.5-0.1-24.7c-0.1-3.5,1-4.8,4.7-4.8
			C376.4,346.4,484.6,346.4,592.9,346.4z"/>
	</g>
</g>
</svg>
