<?xml version="1.0" encoding="utf-8"?>
<!-- Generator: Adobe Illustrator 21.0.2, SVG Export Plug-In . SVG Version: 6.00 Build 0)  -->
<svg version="1.1" id="Layer_1" xmlns="http://www.w3.org/2000/svg" xmlns:xlink="http://www.w3.org/1999/xlink" x="0px" y="0px"
	 viewBox="0 0 496.9 496.9" style="enable-background:new 0 0 496.9 496.9;" xml:space="preserve">
<style type="text/css">
	.st0{fill:#FFFFFF;}
</style>
<g>
	<g>
		<path class="st0" d="M277.1,379.7c-38.2,0-76.3,0.2-114.5-0.2c-6.1-0.1-12.6-1.7-18.1-4.3c-8.2-3.8-11.6-11.8-13.6-20.4
			c-14.9-65.3-29.8-130.7-44.7-196c-0.9-4-0.8-9.7-3.4-11.5c-2.9-2.1-8.3-0.9-12.6-0.9c-9.3,0-18.7,0-28,0
			c-16.8,0-23.4-9.5-17.8-25.7c3.9-11.4,14.4-18.8,26.7-18.8c31,0,62,0,93,0c12.3,0,22.2,6.6,26.7,18c2.9,7.4,5.9,14.8,8.5,22.3
			c1.3,3.6,3,4.9,7.1,4.9c86.1-0.2,172.3-0.1,258.4-0.1c14.8,0,26,7.6,29.2,20.7c1.2,4.8,1.2,10.4-0.2,15.1
			c-16.9,58.6-34,117.1-51.2,175.6c-4,13.7-14.5,21.1-29.6,21.1C354.5,379.7,315.8,379.7,277.1,379.7z M370.4,255
			c-0.2-45.5-36.4-81.2-82.4-81c-43.9,0.1-80,37-79.9,81.6c0.1,45,36.6,80.9,81.8,80.7C334.7,336,370.5,299.9,370.4,255z"/>
		<path class="st0" d="M340.9,454.2c-18.1-0.1-32-14.4-31.9-32.5c0.1-17,14.9-31.6,32.1-31.6c18,0,32.1,14.5,31.9,33
			C372.9,440.6,358.6,454.3,340.9,454.2z M341.2,440c9.8,0,17.8-8,17.8-17.7c0-9.7-8.1-17.5-18-17.5c-9.8,0-17.9,8.1-17.8,17.7
			C323.3,432.3,331.2,440,341.2,440z"/>
		<path class="st0" d="M194.5,454.2c-17.9,0-31.7-14.1-31.6-32.1c0.1-17.8,14.3-32,31.9-32c17.3,0,32.1,14.9,32.1,32.2
			C227,440.1,212.6,454.3,194.5,454.2z M194.5,404.7c-9.8,0.1-17.7,8-17.6,17.8c0.1,9.8,8,17.5,18,17.4c9.8,0,17.8-8.1,17.7-17.8
			C212.5,412.3,204.5,404.6,194.5,404.7z"/>
		<path class="st0" d="M308.1,311.8c-13,0-25,0-37.6,0c0-19.1,0-38.2,0-57.7c-12.2,0-23.7,0-35.1,0c18.3-18.2,36.4-36.3,53.9-53.7
			c17.6,17.3,35.6,35.2,54.2,53.4c-11.8,0-23.2,0-35.3,0C308.1,273.2,308.1,292.3,308.1,311.8z"/>
	</g>
</g>
</svg>
