<?xml version="1.0" encoding="utf-8"?>
<!-- Generator: Adobe Illustrator 21.0.2, SVG Export Plug-In . SVG Version: 6.00 Build 0)  -->
<svg version="1.1" id="Layer_1" xmlns="http://www.w3.org/2000/svg" xmlns:xlink="http://www.w3.org/1999/xlink" x="0px" y="0px"
	 viewBox="0 0 1200 1200" style="enable-background:new 0 0 1200 1200;" xml:space="preserve">
<g>
	<g>
		<path d="M1040.6,126.1C790.9,204.3,541.4,282.5,292,360.6c0,0.2,0,0.4,0,0.6c0.9,0.1,1.7,0.2,2.6,0.2c274.7,0,549.5,0,824.2-0.1
			c15.6,0,29.6,3.6,41.4,14.1c10.1,8.9,15.6,20.3,17.3,33.5c0.6,4.8,0.8,9.7,0.8,14.6c0,234.4,0,468.7,0,703.1
			c0,24.7-14.1,45.4-36.4,52.6c-6.4,2.1-13.4,3.4-20.1,3.4c-348.9,0.2-697.7,0.1-1046.6,0.1c-28.5,0-50.1-17.7-55.4-45.4
			c-0.6-3.3-0.9-6.7-0.9-10c0-236.9,0-473.7,0-710.6c0-27.1,19.2-49,46.1-52.9c1-0.1,2-0.7,2.9-0.6c3.2,0.4,4.1-1.5,5.1-4.1
			c7.4-18.6,19.9-32.6,38.5-40.2c27.9-11.4,53.5-6.5,76.4,12.6c2.4,2,4.3,2.4,7.3,1.6c86-24.4,171.9-48.6,257.9-73
			c104.6-29.6,209.2-59.3,313.8-88.9c87.5-24.8,174.9-49.6,262.4-74.2c3.1-0.9,4-2.2,4.1-5.3c1.4-34.3,28.6-63.1,63-67.6
			c37.8-5,74.3,20.5,80.9,59.7c7.1,42.4-22.9,78.9-61.4,83.9c-31.2,4-58.7-10.4-73.4-38.2C1041.9,128.3,1041.3,127.4,1040.6,126.1z
			 M163.9,650.9c177.2,0,354,0,530.8,0c0-48.2,0-96.1,0-144.1c-177.1,0-353.9,0-530.8,0C163.9,555,163.9,602.8,163.9,650.9z
			 M792.1,650.9c80.5,0,160.7,0,240.9,0c0-48.2,0-96.1,0-144.1c-80.5,0-160.6,0-240.9,0C792.1,555,792.1,602.8,792.1,650.9z
			 M791.9,917.1c-0.1,66.8,53,120.4,119.1,120.7c68.5,0.3,121.2-52.4,122.2-118.8c1-69.8-53.9-122.5-120.4-122.6
			C845.5,796.2,791.6,849.6,791.9,917.1z M164.1,796.6c0,80.6,0,160.7,0,240.9c16.1,0,31.9,0,47.7,0c0-80.5,0-160.6,0-240.9
			C195.7,796.6,180,796.6,164.1,796.6z M260.5,796.6c0,80.5,0,160.6,0,240.9c16,0,31.8,0,47.6,0c0-80.4,0-160.6,0-240.9
			C292.2,796.6,276.5,796.6,260.5,796.6z M501.6,1037.6c0-80.5,0-160.6,0-240.9c-16,0-31.8,0-47.6,0c0,80.4,0,160.5,0,240.9
			C469.9,1037.6,485.6,1037.6,501.6,1037.6z M550.6,796.6c0,80.5,0,160.7,0,240.9c16.1,0,31.9,0,47.7,0c0-80.4,0-160.6,0-240.9
			C582.3,796.6,566.6,796.6,550.6,796.6z M357.2,1037.5c16.1,0,31.9,0,47.7,0c0-80.4,0-160.6,0-240.7c-16,0-31.8,0-47.7,0
			C357.2,877.1,357.2,957,357.2,1037.5z M647.3,796.6c0,80.5,0,160.7,0,240.9c15.9,0,31.6,0,47.4,0c0-80.5,0-160.7,0-240.9
			C678.7,796.6,663.1,796.6,647.3,796.6z"/>
		<path d="M984.9,917.2c-0.1,39-33.6,72.3-72.6,72.2c-38.9-0.1-72.5-33.9-72.3-72.7c0.1-38.7,34.1-72.5,72.8-72.4
			C951.5,844.6,985,878.4,984.9,917.2z"/>
	</g>
</g>
</svg>
