<?xml version="1.0" encoding="utf-8"?>
<!-- Generator: Adobe Illustrator 21.0.2, SVG Export Plug-In . SVG Version: 6.00 Build 0)  -->
<svg version="1.1" id="Layer_1" xmlns="http://www.w3.org/2000/svg" xmlns:xlink="http://www.w3.org/1999/xlink" x="0px" y="0px"
	 viewBox="0 0 226 225" style="enable-background:new 0 0 226 225;" xml:space="preserve">
<g>
	<g>
		<path d="M226,101c0,8,0,16,0,24c-7.1,3.3-13.9,7.3-21.3,9.5c-7.7,2.3-12.1,6.8-13.8,14.3c-0.5,2.1-0.6,4.6,0.1,6.5
			c2.9,7.2,6,14.4,9.4,21.4c1.9,3.9,1.6,6.6-1.8,9.4c-4,3.3-7.6,7-11.1,10.8c-2.1,2.3-4.2,2.7-7.1,1.6c-8-3.2-16-6.3-24.1-9.5
			c-5.1-2-16.4,2.9-18.4,7.9c-3,7.5-6.1,15.1-9.1,22.6c-1.2,2.9-2.9,4.5-6.4,4.3c-5.8-0.3-11.7,0.2-17.5-0.2
			c-1.9-0.1-4.4-1.6-5.3-3.3c-2.9-5.6-5.8-11.3-7.6-17.3c-2.3-7.6-6.9-12.1-14.4-13.7c-2.2-0.5-4.9-0.6-6.9,0.2
			c-8.1,3-15.9,6.7-24,9.7c-1.6,0.6-4.5-0.1-5.9-1.3c-4.4-3.8-8.3-8.2-12.6-12.1c-2.4-2.2-2.7-4.2-1.4-7c3.1-7.2,5.9-14.4,8.9-21.6
			c3-7.1-1.5-17.4-8.5-20.2C18.3,133.5,9.7,129.7,1,126c0-8.3,0-16.7,0-25c9.2-3.7,18.4-7.4,27.5-11.2c5.1-2.1,9.7-13.4,7.4-18.4
			c-3.3-7.4-6.5-14.9-9.9-22.3c-1.3-2.9-1.2-5.1,1.5-7.4c4.2-3.6,8-7.5,11.8-11.5c2.3-2.4,4.4-2.9,7.5-1.6
			c7.8,3.2,15.7,6.2,23.6,9.3c5.5,2.1,16.5-2.6,18.6-8c3-7.4,6-14.7,9-22.1c1.2-3.1,3-4.8,6.7-4.5c5.5,0.4,11,0.3,16.5,0
			c3.3-0.2,5.3,0.9,6.6,4c2.4,5.8,5.6,11.4,7.4,17.4c2.1,7.1,6.4,11,13.3,12.9c3,0.8,5.4,1.3,8.4-0.1c7.5-3.5,15.3-6.4,22.9-9.7
			c2.7-1.2,4.6-0.8,6.6,1.3c4,4.2,8.2,8.3,12.5,12.2c2.2,2,2.6,3.9,1.4,6.6c-3.3,7.6-6.2,15.3-9.4,23c-2.3,5.7,2.3,16.7,8,18.9
			C208,93.5,217,97.3,226,101z M113.6,78C94,78,77.2,94.2,77.2,113c0,19.7,16.5,36,36.4,36c19.5,0,36.3-16.4,36.2-35.2
			C149.7,94.3,133.3,78.1,113.6,78z"/>
	</g>
</g>
</svg>
