<?xml version="1.0" encoding="utf-8"?>
<!-- Generator: Adobe Illustrator 21.0.2, SVG Export Plug-In . SVG Version: 6.00 Build 0)  -->
<svg version="1.1" id="Layer_1" xmlns="http://www.w3.org/2000/svg" xmlns:xlink="http://www.w3.org/1999/xlink" x="0px" y="0px"
	 viewBox="0 0 800 800" style="enable-background:new 0 0 800 800;" xml:space="preserve">
<g>
	<g>
		<path d="M400.2,120.2c10.6-11,20.2-22.3,31.2-32.2c35.9-32.2,78-51.7,126.3-55c92.7-6.3,163.8,31,212,110.1
			c24.1,39.6,31.7,83.5,28.7,129.6c-4.8,75.4-38.6,137.4-88.2,192.2c-33.7,37.3-71.5,70.3-109,103.6c-39.2,34.9-78.2,70-113.6,108.9
			c-26.8,29.6-51.3,60.9-72.8,94.5c-1.8,2.8-3.8,4.1-7.2,3.9c-6-0.4-12.8,1.4-17.6-1c-4.6-2.4-7.1-8.9-10.4-13.7
			c-36.1-51.6-78.6-97.5-125.1-139.7c-36.9-33.5-74.5-66.1-111.4-99.7c-32.8-29.9-63.7-61.6-88.6-98.7
			c-26.2-39.1-43.2-81.7-49.2-128.4c-5.5-42.8-3.7-85,13.7-125.1C50.9,95.7,106.4,49,185.8,35.6c86.3-14.6,157.5,14.8,212.8,82.7
			C399.2,119,399.8,119.8,400.2,120.2z M400.4,705.2c1-1.2,1.7-1.9,2.3-2.7c21.5-28.7,45.1-55.7,70-81.4
			c40-41.2,83.4-78.6,126.1-116.8c32.8-29.4,65-59.2,92.5-93.9c34.7-43.7,56.3-92.4,57.8-149c1.6-58.4-19.6-106.3-65-143
			c-78.6-63.6-199-42.5-251.1,44.2c-11.3,18.9-19.7,39.6-29.5,59.4c-0.8,1.6-1.6,3.1-2.9,5.4c-3.8-8-7-15.1-10.4-22.1
			c-9.7-20.4-18.7-41.1-32.8-59.2c-41.1-52.6-113.2-76.8-177.9-59.1c-75,20.5-125.7,85.5-127.1,163.2c-0.9,47.6,10.7,92,35.4,132.8
			c17.6,29,39,55,63.6,78c39.2,36.6,79.5,72,119.3,108c41.3,37.3,81.1,76.2,116.2,119.6C391.5,694.1,395.8,699.5,400.4,705.2z"/>
	</g>
</g>
</svg>
