<?xml version="1.0" encoding="utf-8"?>
<!-- Generator: Adobe Illustrator 21.0.2, SVG Export Plug-In . SVG Version: 6.00 Build 0)  -->
<svg version="1.1" id="Layer_1" xmlns="http://www.w3.org/2000/svg" xmlns:xlink="http://www.w3.org/1999/xlink" x="0px" y="0px"
	 viewBox="0 0 1200 1200" style="enable-background:new 0 0 1200 1200;" xml:space="preserve">
<g>
	<g>
		<path d="M823,422.6c0,61.2,0.5,122.5-0.2,183.7c-0.6,52.1-18.5,98.2-52.3,137.8c-32.5,38.2-73.5,62.8-122.4,73.8
			c-23.5,5.3-47.3,6.9-71.4,4.2c-56-6.4-103.3-30.3-141-72c-37.9-41.9-57.4-91.6-57.5-148.4c-0.1-119.5-0.3-239,0.1-358.5
			c0.2-58.8,21.6-109.5,62.2-152c30.2-31.6,66.8-52.3,109.3-62.3c20.9-4.9,42.1-6.9,63.4-5.5c60,3.9,110.9,27.8,151.5,72.2
			c38.6,42.2,58,92.3,58.2,149.6C823.3,304.3,823.1,363.5,823,422.6C823.1,422.6,823,422.6,823,422.6z M733.8,423.5
			c-1.7,0-3.1,0-4.4,0c-14.5-0.2-29,0.4-43.4-0.8c-12.9-1-24.6-6.2-32.5-17c-10.5-14.5-11.6-30.6-3.8-46.5
			c7.9-16.1,21.5-24.7,39.6-25.1c13.5-0.3,27-0.1,40.5-0.1c1.3,0,2.6-0.1,4-0.2c0-14.8,0-29.1,0-43.8c-1.6,0-3.1,0-4.6,0
			c-14.7-0.2-29.5,0.1-44.2-0.9c-10.2-0.7-19.6-4.9-27.2-12c-22.5-21.1-14.6-61.3,14.6-72.8c6-2.4,12.8-3.2,19.3-3.5
			c11-0.6,22.1-0.2,33.3-0.2c-15.4-46.4-65.6-93.2-134.7-88.1c-59.3,4.4-101.9,49-113.8,88.1c1.4,0,2.8,0,4.1,0
			c10.7,0,21.5-0.3,32.2,0.1c18.4,0.8,32,9.7,39.4,26.5c7,15.8,5.9,31.7-5,45.7c-9.4,12-22.9,16.4-37.6,17
			c-12.7,0.5-25.5,0.1-38.2,0.1c-1.3,0-2.7,0-4.1,0c0,14.8,0,29.1,0,44c1.6,0,3,0,4.5,0c13.1,0,26.2,0,39.4,0
			c24.8,0.1,44.5,19,45.1,43.8c0.6,27.5-17.4,42.1-41.2,44.8c-12.6,1.4-25.4,0.6-38.2,0.8c-3.1,0-6.2,0-9.4,0c0,14.8,0,29.2,0,43.6
			c88.9,0,177.6,0,266.3,0C733.8,452.6,733.8,438.4,733.8,423.5z"/>
		<path d="M333.8,1178.7c0-15.4-0.5-30.4,0.2-45.4c0.5-11.1,4.6-21.4,12-30c8.8-10.3,20.5-13.7,33.6-13.7c24.5,0,49,0,73.5,0
			c18,0,36,0,54,0c1.3,0,2.7,0,4.3,0c0-33.3,0-66.3,0-99.5c-7.3-2-14.7-4-22-6.1c-55.4-16-105-42.9-148.9-80.3
			c-41.9-35.7-75.1-78.3-99.4-127.7c-17-34.5-29.3-70.7-34.8-108.9c-2.4-16.6-4.2-33.4-5-50.1c-1-19.3-1.6-38.8-0.5-58.1
			c1-18.3,8.3-34.5,26-42.9c20.1-9.6,46.6-3.7,57.9,22.8c3.4,8,5.4,16.2,5.2,25.1c-0.3,15.6-0.3,31.3,0.1,46.9
			c1.3,46.5,12.6,90.4,34,131.7c29.6,57.2,72.8,101.2,129.3,132.1c29.4,16.1,60.8,26.7,93.8,32.7c25.7,4.6,51.6,6,77.6,3.8
			c62.6-5.3,119-26.8,168.3-65.8c57.7-45.7,94.8-104.8,111.5-176.5c5.3-22.7,7.5-45.8,7.4-69c0-13.7-0.7-27.5,0.2-41.2
			c1.1-17.6,7.8-32.8,24-41.6c19.3-10.5,48.7-6.1,60.2,22c3.4,8.4,5.2,17,5,26.1c-0.4,18.7,0.2,37.5-0.7,56.2
			c-1.9,40-9.7,78.9-23.6,116.5c-16.3,44.1-39.5,84.1-69.9,120c-29.8,35.2-64.7,64.5-104.5,87.7c-34.4,20.1-71.1,34.7-109.9,43.9
			c-0.8,0.2-1.6,0.6-2.6,0.9c0,32.9,0,65.9,0,99.4c1.6,0,3,0,4.5,0c42.4,0,84.7,0,127.1,0c17.7,0,31.2,7.6,40.3,22.9
			c3.8,6.3,5.6,13.3,5.8,20.6c0.3,14.6,0.1,29.2,0.1,43.9c0,0.5-0.2,0.9-0.3,1.6C689.6,1178.7,511.9,1178.7,333.8,1178.7z"/>
	</g>
</g>
</svg>
